<svg id="Layer_1" data-name="Layer 1" xmlns="http://www.w3.org/2000/svg" viewBox="0 0 416.05 27.31"><defs><style>.cls-1{font-size:12px;fill:#fff;font-family:MyriadPro-Regular, Myriad Pro;}.cls-2{letter-spacing:0em;}.cls-3{letter-spacing:0em;}.cls-4{letter-spacing:-0.01em;}.cls-5{letter-spacing:-0.03em;}.cls-6{letter-spacing:0em;}.cls-7{letter-spacing:0em;}.cls-8{letter-spacing:0em;}.cls-9{letter-spacing:0.01em;}.cls-10{letter-spacing:-0.01em;}.cls-11{letter-spacing:-0.01em;}.cls-12{letter-spacing:-0.01em;}.cls-13{fill:none;stroke:#fff;stroke-miterlimit:10;}.cls-14{letter-spacing:-0.07em;}.cls-15{letter-spacing:0.01em;}.cls-16{letter-spacing:-0.01em;}.cls-17{letter-spacing:0em;}.cls-18{letter-spacing:-0.01em;}</style></defs><text class="cls-1" transform="translate(0 17.18)"><tspan class="cls-2">R</tspan><tspan x="6.5" y="0">e</tspan><tspan class="cls-3" x="12.52" y="0">w</tspan><tspan x="21.3" y="0">a</tspan><tspan class="cls-4" x="27.08" y="0">r</tspan><tspan x="30.89" y="0">ds = </tspan></text><text class="cls-1" transform="translate(121.65 10.04)"><tspan class="cls-5">V</tspan><tspan x="6.3" y="0">olume x </tspan><tspan class="cls-6" x="49" y="0">Q</tspan><tspan x="57.3" y="0">ua</tspan><tspan class="cls-7" x="69.7" y="0">n</tspan><tspan class="cls-8" x="76.31" y="0">ti</tspan><tspan class="cls-9" x="83.09" y="0">t</tspan><tspan x="87.17" y="0">y of spa</tspan><tspan class="cls-10" x="125.36" y="0">c</tspan><tspan x="130.67" y="0">e </tspan><tspan class="cls-11" x="139.22" y="0">c</tspan><tspan x="144.53" y="0">oin </tspan><tspan class="cls-10" x="163.13" y="0">t</tspan><tspan x="167.03" y="0">okens </tspan><tspan class="cls-12" x="199.21" y="0">o</tspan><tspan x="205.71" y="0">wned</tspan></text><line class="cls-13" x1="61.23" y1="12.7" x2="416.05" y2="12.7"/><text class="cls-1" transform="translate(149.68 24.31)"><tspan class="cls-14">T</tspan><tspan x="5.11" y="0">otal Supply x </tspan><tspan class="cls-2" x="72.14" y="0">R</tspan><tspan x="78.65" y="0">efle</tspan><tspan class="cls-15" x="96.95" y="0">c</tspan><tspan x="102.48" y="0">tion </tspan><tspan class="cls-16" x="125.05" y="0">r</tspan><tspan x="128.85" y="0">e</tspan><tspan class="cls-3" x="134.87" y="0">w</tspan><tspan x="143.65" y="0">a</tspan><tspan class="cls-16" x="149.43" y="0">r</tspan><tspan class="cls-17" x="153.24" y="0">d </tspan><tspan class="cls-18" x="162.55" y="0">f</tspan><tspan x="165.9" y="0">ee</tspan></text></svg>